<svg width="162" height="56" fill="none" xmlns="http://www.w3.org/2000/svg"><path fill="url(#paint0_linear_1422:18939)" d="M.519 19.943h3.312v20.353H.519z"/><path fill="url(#paint1_linear_1422:18939)" d="M6.039 16.008h3.312v24.29H6.039z"/><path fill="url(#paint2_linear_1422:18939)" d="M11.559 4.963h3.312v35.33h-3.312z"/><path fill="url(#paint3_linear_1422:18939)" d="M17.079 19.943h3.312v20.353h-3.312z"/><path d="M42.871 16.736h2.055v3.468H42.57c-2.083 0-3.71.642-4.88 1.927-1.142 1.255-1.712 3.025-1.712 5.308v12.543h-3.64V16.865h2.57l.599 3.51c1.683-2.425 4.138-3.639 7.363-3.639zm26.89 11.773c0 .314-.028.757-.085 1.327H49.941c.285 2.14 1.17 3.868 2.654 5.18 1.484 1.285 3.31 1.927 5.48 1.927 1.598 0 3.01-.343 4.238-1.027a7.95 7.95 0 002.996-2.997h3.81c-.97 2.397-2.425 4.267-4.366 5.608-1.94 1.313-4.167 1.97-6.678 1.97-3.34 0-6.137-1.157-8.391-3.468-2.255-2.312-3.382-5.18-3.382-8.605 0-3.454 1.127-6.322 3.382-8.605 2.255-2.312 5.051-3.468 8.39-3.468 3.454 0 6.265 1.17 8.434 3.51 2.17 2.34 3.254 5.223 3.254 8.648zm-11.686-8.69c-1.37 0-2.626.271-3.768.813a7.375 7.375 0 00-2.782 2.355c-.742.999-1.242 2.155-1.499 3.467H66.08c-.257-1.341-.756-2.511-1.498-3.51a7.019 7.019 0 00-2.783-2.312c-1.113-.542-2.355-.813-3.724-.813zm27.52 20.677c-2.284 0-4.367-.514-6.25-1.541-1.884-1.056-3.354-2.497-4.41-4.324-1.056-1.855-1.584-3.924-1.584-6.207 0-3.482 1.156-6.365 3.467-8.648 2.34-2.283 5.266-3.425 8.776-3.425 2.312 0 4.396.528 6.25 1.584a11.081 11.081 0 014.41 4.324c1.085 1.827 1.627 3.881 1.627 6.165 0 3.453-1.17 6.336-3.51 8.647-2.34 2.284-5.266 3.425-8.776 3.425zm-6.122-5.908c1.626 1.599 3.667 2.398 6.121 2.398 2.484 0 4.524-.8 6.122-2.398 1.627-1.626 2.44-3.681 2.44-6.164 0-2.483-.813-4.524-2.44-6.122-1.598-1.627-3.638-2.44-6.121-2.44-2.455 0-4.496.813-6.122 2.44-1.599 1.598-2.398 3.639-2.398 6.122s.8 4.538 2.398 6.164zm36.139-18.237c3.453 0 6.293 1.142 8.519 3.425 2.255 2.283 3.382 5.166 3.382 8.648 0 3.453-1.127 6.336-3.382 8.647-2.226 2.284-5.066 3.425-8.519 3.425-3.624 0-6.593-1.27-8.904-3.81l-.471 3.296h-2.826V8.602h3.639v11.174c2.255-2.283 5.109-3.425 8.562-3.425zm-.3 20.635c1.627 0 3.083-.371 4.367-1.113a7.868 7.868 0 002.997-3.04c.742-1.313 1.113-2.782 1.113-4.41 0-2.454-.799-4.494-2.398-6.121-1.598-1.627-3.624-2.44-6.079-2.44-2.425 0-4.452.827-6.079 2.483-1.626 1.626-2.44 3.653-2.44 6.079 0 .942.129 1.855.386 2.74a8.559 8.559 0 001.198 2.397 8.95 8.95 0 001.798 1.798 8.74 8.74 0 002.355 1.199 9.006 9.006 0 002.782.428zm17.569-24.145V8.688h3.939v4.153h-3.939zm.171 27.141V16.865h3.639v23.117h-3.639zm14.207-3.424h12.244v3.424h-18.109v-.556l12.287-19.179h-11.473v-3.382h17.252v.6l-12.201 19.093z" fill="#fff"/><defs><linearGradient id="paint0_linear_1422:18939" x1="2.175" y1="19.943" x2="2.175" y2="49.404" gradientUnits="userSpaceOnUse"><stop stop-color="#70D0FA"/><stop offset="1" stop-color="#6DA5F3"/></linearGradient><linearGradient id="paint1_linear_1422:18939" x1="7.695" y1="16.008" x2="7.695" y2="51.167" gradientUnits="userSpaceOnUse"><stop stop-color="#70D0FA"/><stop offset="1" stop-color="#6DA5F3"/></linearGradient><linearGradient id="paint2_linear_1422:18939" x1="13.215" y1="4.963" x2="13.215" y2="56.102" gradientUnits="userSpaceOnUse"><stop stop-color="#70D0FA"/><stop offset="1" stop-color="#6DA5F3"/></linearGradient><linearGradient id="paint3_linear_1422:18939" x1="18.735" y1="19.943" x2="18.735" y2="49.404" gradientUnits="userSpaceOnUse"><stop stop-color="#70D0FA"/><stop offset="1" stop-color="#6DA5F3"/></linearGradient></defs></svg>